<svg xmlns="http://www.w3.org/2000/svg" width="199.591" height="62" viewBox="0 0 199.591 62"><g transform="translate(0.187 0.071)"><g transform="translate(-0.187 -0.071)"><path d="M0,31C.674,9.726,9.726.674,31,0,52.275.674,61.326,9.726,62,31c-.674,21.275-9.725,30.326-31,31C9.726,61.326.674,52.275,0,31Z" transform="translate(0 0)" fill="#46a0cd"/><path d="M29.867,22.011,8.25,18.458,5.072,29s-.362-.693-.987-1.868c-.584-1.1-1.536-2.879-2.754-5.121A10.03,10.03,0,0,1,.854,21a11.293,11.293,0,0,1-.381-1.1c-.11-.381-.2-.774-.275-1.168a12.181,12.181,0,0,1-.16-1.211A11.2,11.2,0,0,1,.1,15.061a9.261,9.261,0,0,1,.6-2.238,3.926,3.926,0,0,0,.088.964,3.881,3.881,0,0,0,.314.9,3.789,3.789,0,0,0,.521.79,3.7,3.7,0,0,0,.709.638,3.584,3.584,0,0,0,.972.472,3.521,3.521,0,0,0,1.936.043,3.579,3.579,0,0,0,.852-.346.718.718,0,0,0,.22.126.709.709,0,0,0,.516-.014.729.729,0,0,0,.242-.165,1.4,1.4,0,0,0,.225-.4c.067-.158.138-.358.213-.593.126-.4.22-.767.221-.771s-.355.1-.742.229c-.226.077-.418.151-.571.22a1.328,1.328,0,0,0-.386.232.768.768,0,0,0-.187.337.794.794,0,0,0,0,.39,3.114,3.114,0,0,1-.729.286,3.077,3.077,0,0,1-1.468.01,3.115,3.115,0,0,1-.679-.249,3.171,3.171,0,0,1-.615-.406,3.272,3.272,0,0,1-.521-.557,3.347,3.347,0,0,1-.517-1.039,3.433,3.433,0,0,1,.1-2.237,3.324,3.324,0,0,1,.606-.986l-.014.01a7.148,7.148,0,0,1,.755-.741,7.292,7.292,0,0,1,.726-.54A7.737,7.737,0,0,1,4.31,8.96a8.593,8.593,0,0,1,.921-.384,9.638,9.638,0,0,1,1.024-.295L35.971,1.449a2.162,2.162,0,0,0-.18.4,2.23,2.23,0,0,0-.1.438,2.244,2.244,0,0,0,.026.747,2.183,2.183,0,0,0,.232.616,2.116,2.116,0,0,0,.391.5,2.049,2.049,0,0,0,.518.359,2,2,0,0,0,.612.184c.042,0,.085,0,.127,0s.085,0,.127,0h.021a1.769,1.769,0,0,0,.418-.05,2.017,2.017,0,0,0,.611-.252,2.07,2.07,0,0,0,.49-.424,2.157,2.157,0,0,0,.34-.556,2.189,2.189,0,0,0,.161-.648,3.521,3.521,0,0,1,.557.371c.2.155.419.348.66.575.427.4.913.907,1.407,1.463.22.248.434.5.636.741s.368.452.517.648.264.357.342.482.119.21.112.241a.017.017,0,0,1-.019.014l-.015,0a.832.832,0,0,0-.221-.027,2.888,2.888,0,0,0-1.164.346,9.56,9.56,0,0,0-.945.533c-.378.239-.8.529-1.239.863a6.578,6.578,0,0,0-.787.726c-.266.284-.552.623-.85,1.007-.284.367-.586.785-.9,1.242-.3.435-.61.917-.93,1.433-1.11,1.784-2.364,4.048-3.726,6.728-.535,1.053-1.089,2.173-1.645,3.331-.446.926-.894,1.877-1.332,2.826-.75,1.624-1.212,2.684-1.217,2.695Zm-.424,6.973.722-1.4.722,1.4Zm-23.951,0,.4-1.58,1.482,1.58ZM41.254,9.5a4.9,4.9,0,0,1,2.443-1.7l-1.16,1.964ZM37.691,4.169a1.7,1.7,0,0,1-.183-.007,1.513,1.513,0,0,1-1.22-1.24,1.629,1.629,0,0,1,0-.538,1.511,1.511,0,0,1,1.188-1.267L43,0,39.392,2.449l-.177.1a1.525,1.525,0,0,1-1.208,1.594,1.266,1.266,0,0,1-.256.026Z" transform="translate(9 18)" fill="#fff"/></g><path d="M142.981-41.275a6.524,6.524,0,0,1-2.34,3.268,6.431,6.431,0,0,1-3.935,1.229,6.326,6.326,0,0,1-2.615-.55,6.76,6.76,0,0,1-2.144-1.506,7.238,7.238,0,0,1-1.451-2.24,7.064,7.064,0,0,1-.536-2.75,7.161,7.161,0,0,1,.536-2.763,7.2,7.2,0,0,1,1.451-2.253,6.939,6.939,0,0,1,2.144-1.519,6.2,6.2,0,0,1,2.615-.563,6.736,6.736,0,0,1,2.118.327,6.514,6.514,0,0,1,1.8.915,6.381,6.381,0,0,1,1.412,1.412,6.688,6.688,0,0,1,.941,1.843H140.6a4.489,4.489,0,0,0-1.569-1.719,4.234,4.234,0,0,0-2.327-.634,4.061,4.061,0,0,0-1.765.391,4.567,4.567,0,0,0-1.438,1.069,5.1,5.1,0,0,0-.967,1.578,5.2,5.2,0,0,0-.353,1.917,5.2,5.2,0,0,0,.353,1.917,4.933,4.933,0,0,0,.967,1.565,4.49,4.49,0,0,0,1.438,1.043,4.179,4.179,0,0,0,1.765.378,4.3,4.3,0,0,0,2.34-.634,4.263,4.263,0,0,0,1.556-1.719Zm8.458,2.379a4.191,4.191,0,0,0,1.77-.379,4.654,4.654,0,0,0,1.455-1.046,4.861,4.861,0,0,0,.983-1.556A5.111,5.111,0,0,0,156-43.785a5.316,5.316,0,0,0-.354-1.935,4.948,4.948,0,0,0-.983-1.595,4.735,4.735,0,0,0-1.455-1.072,4.074,4.074,0,0,0-1.77-.392,4.074,4.074,0,0,0-1.77.392,4.581,4.581,0,0,0-1.442,1.072,5.072,5.072,0,0,0-.97,1.595,5.315,5.315,0,0,0-.354,1.935,5.111,5.111,0,0,0,.354,1.909,4.982,4.982,0,0,0,.97,1.556,4.5,4.5,0,0,0,1.442,1.046A4.191,4.191,0,0,0,151.439-38.9Zm.013-12.027a6.412,6.412,0,0,1,2.68.563,6.642,6.642,0,0,1,2.144,1.532,7.3,7.3,0,0,1,1.425,2.266,7.318,7.318,0,0,1,.523,2.763,7.12,7.12,0,0,1-.523,2.737,7.377,7.377,0,0,1-1.425,2.24,6.478,6.478,0,0,1-2.144,1.519,6.542,6.542,0,0,1-2.68.55,6.452,6.452,0,0,1-2.667-.55,6.662,6.662,0,0,1-2.144-1.519,7.249,7.249,0,0,1-1.438-2.24,7.121,7.121,0,0,1-.523-2.737,7.318,7.318,0,0,1,.523-2.763,7.171,7.171,0,0,1,1.438-2.266,6.835,6.835,0,0,1,2.144-1.532A6.324,6.324,0,0,1,151.452-50.923Zm11.661,13.831H160.89v-8.184a5.95,5.95,0,0,1,.431-2.314,5.31,5.31,0,0,1,1.177-1.765,5.229,5.229,0,0,1,1.778-1.137,6.066,6.066,0,0,1,2.235-.405,6.066,6.066,0,0,1,2.235.405,5.229,5.229,0,0,1,1.778,1.137,5.15,5.15,0,0,1,1.164,1.765,6.114,6.114,0,0,1,.418,2.314v8.184h-2.222v-8.262a3.53,3.53,0,0,0-.908-2.5,3.2,3.2,0,0,0-2.465-.98,3.237,3.237,0,0,0-2.478.98,3.5,3.5,0,0,0-.921,2.5Zm17.622,0a5.831,5.831,0,0,1-2.157-.131,3.9,3.9,0,0,1-1.673-.9,4.386,4.386,0,0,1-1.085-1.621,6.057,6.057,0,0,1-.392-2.262V-53.433h2.222v2.876h3.033v2.118H177.65v6.432a3.743,3.743,0,0,0,.246,1.464,2.19,2.19,0,0,0,.674.9,2.424,2.424,0,0,0,.985.444,4.047,4.047,0,0,0,1.18.065Zm2.327-8a6.529,6.529,0,0,1,.51-2.667,5.1,5.1,0,0,1,1.386-1.882A5.138,5.138,0,0,1,187-50.674a6.756,6.756,0,0,1,2.5-.144v2.066a4.113,4.113,0,0,0-3.079.732,3.483,3.483,0,0,0-1.13,2.876v8.053h-2.222Zm14.681,6.2a4.191,4.191,0,0,0,1.77-.379,4.654,4.654,0,0,0,1.455-1.046,4.861,4.861,0,0,0,.983-1.556,5.111,5.111,0,0,0,.354-1.909,5.315,5.315,0,0,0-.354-1.935,4.948,4.948,0,0,0-.983-1.595,4.735,4.735,0,0,0-1.455-1.072,4.073,4.073,0,0,0-1.77-.392,4.073,4.073,0,0,0-1.77.392,4.581,4.581,0,0,0-1.442,1.072,5.073,5.073,0,0,0-.97,1.595,5.316,5.316,0,0,0-.354,1.935,5.112,5.112,0,0,0,.354,1.909,4.983,4.983,0,0,0,.97,1.556,4.5,4.5,0,0,0,1.442,1.046A4.191,4.191,0,0,0,197.743-38.9Zm.013-12.027a6.413,6.413,0,0,1,2.68.563,6.642,6.642,0,0,1,2.144,1.532A7.294,7.294,0,0,1,204-46.561a7.318,7.318,0,0,1,.523,2.763A7.121,7.121,0,0,1,204-41.061a7.376,7.376,0,0,1-1.425,2.24,6.478,6.478,0,0,1-2.144,1.519,6.542,6.542,0,0,1-2.68.55,6.452,6.452,0,0,1-2.667-.55,6.662,6.662,0,0,1-2.144-1.519,7.251,7.251,0,0,1-1.438-2.24,7.12,7.12,0,0,1-.523-2.737,7.318,7.318,0,0,1,.523-2.763,7.172,7.172,0,0,1,1.438-2.266,6.836,6.836,0,0,1,2.144-1.532A6.324,6.324,0,0,1,197.756-50.923Zm9.308-5.621h2.222v14.459a3.743,3.743,0,0,0,.246,1.464,2.19,2.19,0,0,0,.674.9,2.427,2.427,0,0,0,1,.444,4.873,4.873,0,0,0,1.193.092v2.092a5.831,5.831,0,0,1-2.157-.131,4,4,0,0,1-1.686-.9,4.309,4.309,0,0,1-1.1-1.621,6.056,6.056,0,0,1-.392-2.262Z" transform="translate(-12.993 77.347)" fill="#46a0cd"/><path d="M15.019-43.863a5.4,5.4,0,0,0-.353-1.961,4.917,4.917,0,0,0-.967-1.582,4.664,4.664,0,0,0-1.438-1.059,4.053,4.053,0,0,0-1.765-.392,4.053,4.053,0,0,0-1.765.392,4.568,4.568,0,0,0-1.438,1.072,5.316,5.316,0,0,0-.98,1.582,5.131,5.131,0,0,0-.366,1.948A5.231,5.231,0,0,0,6.312-41.9a5.307,5.307,0,0,0,.994,1.608,4.627,4.627,0,0,0,1.451,1.085,4,4,0,0,0,1.739.392,4.053,4.053,0,0,0,1.765-.392A4.568,4.568,0,0,0,13.7-40.281a5.076,5.076,0,0,0,.967-1.595A5.475,5.475,0,0,0,15.019-43.863Zm2.222,0a7.273,7.273,0,0,1-.536,2.811A7.182,7.182,0,0,1,15.254-38.8a6.588,6.588,0,0,1-2.144,1.49,6.468,6.468,0,0,1-2.615.536,6.462,6.462,0,0,1-2.667-.549,6.76,6.76,0,0,1-2.144-1.5,7,7,0,0,1-1.438-2.249,7.362,7.362,0,0,1-.523-2.785V-56.544H5.868v7.922a6.183,6.183,0,0,1,2.039-1.66,5.663,5.663,0,0,1,2.615-.614,6.44,6.44,0,0,1,2.628.536,6.728,6.728,0,0,1,2.131,1.477,6.88,6.88,0,0,1,1.438,2.222A7.333,7.333,0,0,1,17.241-43.863ZM25.83-38.9a4.191,4.191,0,0,0,1.77-.379,4.654,4.654,0,0,0,1.455-1.046,4.861,4.861,0,0,0,.983-1.556,5.111,5.111,0,0,0,.354-1.909,5.316,5.316,0,0,0-.354-1.935,4.948,4.948,0,0,0-.983-1.595A4.735,4.735,0,0,0,27.6-48.387a4.074,4.074,0,0,0-1.77-.392,4.074,4.074,0,0,0-1.77.392,4.581,4.581,0,0,0-1.442,1.072,5.073,5.073,0,0,0-.97,1.595,5.316,5.316,0,0,0-.354,1.935,5.111,5.111,0,0,0,.354,1.909,4.983,4.983,0,0,0,.97,1.556,4.5,4.5,0,0,0,1.442,1.046A4.191,4.191,0,0,0,25.83-38.9Zm.013-12.027a6.413,6.413,0,0,1,2.68.563,6.642,6.642,0,0,1,2.144,1.532,7.294,7.294,0,0,1,1.425,2.266,7.318,7.318,0,0,1,.523,2.763,7.12,7.12,0,0,1-.523,2.737,7.376,7.376,0,0,1-1.425,2.24A6.478,6.478,0,0,1,28.523-37.3a6.542,6.542,0,0,1-2.68.55,6.452,6.452,0,0,1-2.667-.55,6.662,6.662,0,0,1-2.144-1.519,7.25,7.25,0,0,1-1.438-2.24,7.12,7.12,0,0,1-.523-2.737,7.318,7.318,0,0,1,.523-2.763,7.171,7.171,0,0,1,1.438-2.266,6.835,6.835,0,0,1,2.144-1.532A6.324,6.324,0,0,1,25.843-50.923Zm7.974.366h2.353l3.713,10.511h.026l3.713-10.511h2.353L41.086-37.092H38.707Z" transform="translate(69.815 77.347)" fill="#333"/></g></svg>